<?xml version="1.0" encoding="UTF-8"?>
<svg xmlns="http://www.w3.org/2000/svg" viewBox="0 0 752.21 752.21" width="35" height="35">
  <defs>
    <style>
      .cls-1 {
        stroke-width: 5px;
      }

      .cls-1, .cls-2 {
        stroke: #fff;
      }

      .cls-1, .cls-2, .cls-3, .cls-4 {
        fill: none;
      }

      .cls-1, .cls-2, .cls-3, .cls-4, .cls-5 {
        stroke-miterlimit: 10;
      }

      .cls-2, .cls-5 {
        stroke-width: 3px;
      }

      .cls-6 {
        fill: #fff;
      }

      .cls-7 {
        fill: #aa0900;
      }

      .cls-3 {
        stroke-width: 8px;
      }

      .cls-3, .cls-4, .cls-5 {
        stroke: #000;
      }

      .cls-4 {
        stroke-width: 6px;
      }
    </style>
  </defs>
  <g id="Layer_4" data-name="Layer 4">
    <path class="cls-5" d="M699.39,352.58c-.79-13.1-2.33-25.98-4.62-38.62-2.36-13.17-5.53-26.07-9.44-38.64-4.1-13.26-9.03-26.17-14.73-38.64-2.51-5.53-5.18-10.98-8-16.34-4-7.61-8.29-15.06-12.86-22.3-7.8-12.39-16.42-24.23-25.78-35.43-.88-1.08-1.78-2.15-2.7-3.21-11.04-12.88-23.05-24.9-35.94-35.92-1.05-.93-2.12-1.83-3.18-2.71-11.2-9.35-23.05-17.98-35.44-25.79-7.24-4.56-14.67-8.84-22.28-12.84-5.37-2.82-10.82-5.49-16.36-8.01-12.47-5.7-25.38-10.63-38.64-14.74-12.57-3.91-25.47-7.06-38.64-9.43-12.64-2.29-25.53-3.85-38.64-4.62-6.59-.4-13.24-.6-19.93-.6-6.27,0-12.52.18-18.7.52-13.11.74-25.99,2.24-38.63,4.48-13.17,2.31-26.06,5.42-38.64,9.28-13.26,4.04-26.15,8.91-38.64,14.54-5.96,2.69-11.83,5.55-17.6,8.58-7.18,3.77-14.2,7.79-21.04,12.07-12.84,8.01-25.1,16.89-36.67,26.56-.65.54-1.31,1.09-1.96,1.65-13.35,11.32-25.79,23.69-37.18,36.98-.49.58-.97,1.15-1.46,1.73-9.84,11.63-18.87,23.96-27.02,36.91-4.1,6.51-7.97,13.16-11.61,19.96-3.28,6.12-6.36,12.34-9.24,18.68-5.7,12.47-10.64,25.38-14.74,38.64-3.91,12.57-7.07,25.47-9.44,38.64-2.29,12.64-3.83,25.52-4.61,38.62-.4,6.6-.61,13.25-.61,19.95,0,6.27.18,12.51.53,18.69.73,13.11,2.24,26,4.47,38.64,2.32,13.17,5.43,26.06,9.29,38.64,4.04,13.26,8.91,26.15,14.54,38.64,3.05,6.76,6.31,13.41,9.81,19.92,3.41,6.36,7.02,12.61,10.83,18.72,8.36,13.38,17.65,26.14,27.8,38.15.13.15.25.31.4.47,11.67,13.77,24.46,26.55,38.24,38.23.15.14.32.28.48.41,12.01,10.16,24.76,19.46,38.15,27.8,6.11,3.82,12.36,7.43,18.73,10.84,6.5,3.5,13.15,6.76,19.91,9.81,12.49,5.63,25.38,10.51,38.64,14.54,12.58,3.86,25.47,6.97,38.64,9.29,12.64,2.23,25.52,3.74,38.63,4.47,6.18.35,12.43.53,18.7.53,6.69,0,13.34-.21,19.93-.61,13.11-.77,26-2.32,38.64-4.61v-226.6h38.64v217.16c13.26-4.1,26.17-9.04,38.64-14.73,6.34-2.89,12.56-5.97,18.67-9.25,6.8-3.64,13.46-7.51,19.97-11.61v-181.57h139.01c3.85-12.58,6.97-25.47,9.28-38.64,2.24-12.64,3.74-25.53,4.48-38.64.34-6.18.52-12.42.52-18.69,0-6.7-.2-13.35-.6-19.95ZM140.94,275.32c5.42-13.03,11.93-25.5,19.39-37.3.27-.45.55-.9.84-1.34,8.88-13.87,19.09-26.81,30.44-38.64,2.4-2.5,4.85-4.95,7.35-7.35,11.83-11.36,24.77-21.57,38.64-30.45.45-.28.89-.57,1.33-.84,11.81-7.45,24.29-13.96,37.31-19.39v173.95h-147.83c3.14-13.32,7.34-26.23,12.53-38.64ZM353.51,622.31c-13.18-1-26.09-3.02-38.63-5.99-13.32-3.14-26.23-7.35-38.64-12.53-13.02-5.42-25.5-11.93-37.31-19.39-.44-.27-.88-.55-1.33-.83-13.87-8.87-26.81-19.08-38.64-30.44-2.5-2.4-4.95-4.86-7.35-7.35-11.35-11.83-21.56-24.77-30.44-38.64-.29-.44-.57-.89-.84-1.34-7.46-11.8-13.97-24.27-19.39-37.3-5.19-12.41-9.39-25.32-12.53-38.64-2.97-12.54-4.99-25.44-5.99-38.64h153.82v77.28h77.27v153.81ZM469.42,391.22h-38.64V127.49c13.32,3.14,26.23,7.35,38.64,12.54v251.19ZM623.23,391.22h-76.53v-200.53c2.49,2.4,4.95,4.85,7.35,7.35,11.36,11.83,21.55,24.77,30.43,38.64.29.44.57.89.84,1.34,7.47,11.8,13.97,24.27,19.39,37.3,5.19,12.41,9.39,25.32,12.53,38.64,2.97,12.54,4.99,25.43,5.99,38.62.49,6.38.73,12.82.73,19.33s-.24,12.94-.73,19.31Z"/>
  </g>
  <g id="Layer_5" data-name="Layer 5">
    <circle class="cls-4" cx="372.21" cy="372.53" r="343.95"/>
  </g>
  <g id="Layer_6" data-name="Layer 6">
    <circle class="cls-3" cx="372.21" cy="372.53" r="354.59"/>
  </g>
  <g id="Layer_3" data-name="Layer 3">
    <circle class="cls-1" cx="372.21" cy="372.53" r="354.59"/>
    <circle class="cls-2" cx="372.21" cy="372.53" r="343.95"/>
    <path class="cls-6" d="M276.25,468.5h77.26V45.27c-13.1.73-25.99,2.24-38.63,4.47-13.17,2.31-26.06,5.43-38.64,9.28-13.26,4.04-26.15,8.91-38.64,14.54-5.97,2.69-11.83,5.54-17.6,8.58-7.17,3.77-14.2,7.79-21.04,12.07-12.85,8.01-25.1,16.88-36.67,26.55-.66.54-1.31,1.09-1.97,1.66-13.35,11.32-25.78,23.68-37.17,36.98-.49.58-.98,1.14-1.47,1.72-9.84,11.64-18.86,23.97-27.01,36.92-4.1,6.51-7.97,13.15-11.61,19.96-3.28,6.12-6.36,12.34-9.24,18.68-5.7,12.47-10.63,25.38-14.74,38.64-3.91,12.58-7.07,25.47-9.44,38.64-2.29,12.64-3.83,25.52-4.62,38.63-.4,6.6-.6,13.24-.6,19.94,0,6.27.18,12.51.53,18.7.73,13.1,2.24,26,4.47,38.64,2.31,13.17,5.43,26.06,9.28,38.64,4.04,13.26,8.91,26.15,14.54,38.64,3.05,6.76,6.31,13.41,9.81,19.92,3.41,6.36,7.02,12.61,10.83,18.72,8.36,13.39,17.65,26.14,27.8,38.15.13.15.26.31.4.48,11.68,13.77,24.47,26.55,38.24,38.23.15.14.32.28.49.41,12.01,10.16,24.75,19.45,38.15,27.8,6.11,3.82,12.36,7.43,18.72,10.84,6.51,3.5,13.15,6.76,19.92,9.81,12.49,5.63,25.38,10.51,38.64,14.54,12.58,3.86,25.47,6.97,38.64,9.28,12.64,2.24,25.52,3.74,38.63,4.47v-77.48c-13.18-1-26.09-3.02-38.63-5.99-13.32-3.14-26.23-7.34-38.64-12.52-13.03-5.43-25.5-11.93-37.31-19.39-.44-.27-.87-.55-1.32-.84-13.87-8.87-26.81-19.08-38.64-30.44-2.51-2.4-4.95-4.86-7.35-7.35-11.35-11.83-21.56-24.76-30.44-38.64-.3-.44-.58-.89-.85-1.34-7.46-11.8-13.96-24.28-19.39-37.3-5.18-12.41-9.39-25.32-12.52-38.64-2.97-12.54-4.99-25.45-5.99-38.64h153.82v77.28ZM128.42,313.96c3.14-13.32,7.34-26.23,12.52-38.64,5.43-13.03,11.93-25.5,19.39-37.3.27-.45.55-.9.85-1.34,8.87-13.87,19.08-26.81,30.44-38.64,2.4-2.51,4.85-4.95,7.35-7.35,11.83-11.35,24.76-21.56,38.64-30.45.45-.28.89-.57,1.32-.84,11.82-7.46,24.29-13.96,37.31-19.39v173.94h-147.83Z"/>
    <path class="cls-6" d="M546.7,468.5v181.57c-6.51,4.1-13.17,7.97-19.97,11.61-6.11,3.28-12.33,6.36-18.67,9.24-12.47,5.7-25.38,10.63-38.64,14.74v-217.16h77.28Z"/>
    <path class="cls-6" d="M546.7,94.99v296.24h-77.28V59.4c13.26,4.1,26.17,9.04,38.64,14.74,5.54,2.52,10.99,5.19,16.36,8.01,7.61,4,15.04,8.28,22.28,12.85Z"/>
    <path class="cls-7" d="M700,372.53c0,6.27-.18,12.51-.53,18.7-.73,13.1-2.24,26-4.47,38.64-2.31,13.17-5.43,26.06-9.28,38.64h-254.92v226.6c-12.64,2.29-25.54,3.84-38.64,4.62-6.6.4-13.24.6-19.93.6-6.27,0-12.52-.18-18.71-.53V45.27c6.18-.35,12.43-.53,18.71-.53,6.69,0,13.33.21,19.93.6,13.1.77,26,2.33,38.64,4.62,13.17,2.38,26.06,5.53,38.64,9.44v80.63c-12.41-5.18-25.32-9.4-38.64-12.54v263.73h192.45c.49-6.38.73-12.82.73-19.31s-.24-12.95-.73-19.33c-1-13.19-3.02-26.09-5.99-38.63-3.14-13.32-7.34-26.23-12.52-38.64-5.43-13.03-11.92-25.5-19.39-37.3-.27-.45-.55-.9-.85-1.34-8.87-13.87-19.07-26.81-30.42-38.64-2.4-2.51-4.86-4.95-7.35-7.35v-95.7c12.4,7.8,24.24,16.43,35.44,25.78,1.07.89,2.13,1.79,3.19,2.71,12.88,11.02,24.89,23.04,35.94,35.93.91,1.05,1.81,2.12,2.7,3.2,9.36,11.2,17.98,23.04,25.78,35.44,4.56,7.24,8.86,14.68,12.86,22.3,2.82,5.36,5.49,10.81,8,16.34,5.7,12.47,10.63,25.38,14.74,38.64,3.91,12.58,7.07,25.47,9.44,38.64,2.29,12.64,3.83,25.52,4.62,38.63.4,6.6.6,13.24.6,19.94Z"/>
  </g>
</svg>