<svg viewBox="834.04461 220.72366071428576 892.35168 411.0026785714286" xmlns="http://www.w3.org/2000/svg" data-name="Layer 5" id="Layer_5" style="max-height: 500px" width="892.35168" height="411.0026785714286">
  <defs>
    <style>
      .cls-1 {
        fill: #fff;
        stroke-width: 3px;
      }

      .cls-1, .cls-2 {
        stroke: #000;
      }

      .cls-1, .cls-2, .cls-3 {
        stroke-miterlimit: 10;
      }

      .cls-2 {
        stroke-width: 5px;
      }

      .cls-2, .cls-3 {
        fill: none;
      }

      .cls-3 {
        stroke: #fff;
        stroke-width: 2px;
      }
    </style>
  </defs>
  <path d="M1555.9,487.3c1.37-.7,2.99.3,2.98,1.84l-.26,46.58c-.15.07-.3.14-.46.21-2.58,1.18-5.19,2.34-7.86,3.48-1.39.6-2.8,1.19-4.21,1.78-.77.33-1.54.64-2.32.96-3.35,1.37-6.75,2.71-10.21,4.02-1.38.53-2.78,1.05-4.18,1.58-2.75,1-5.53,2.01-8.35,2.98-.96.34-1.93.68-2.91,1-1.03.36-2.07.71-3.13,1.06-.91.29-1.82.61-2.75.9-1.24.4-2.48.81-3.75,1.21-2.59.84-5.23,1.65-7.88,2.45-1.54.47-3.09.93-4.64,1.39-3.21.94-6.45,1.86-9.74,2.77-.92.25-1.85.51-2.78.75-2.41.66-4.86,1.29-7.31,1.92-1.42.36-2.84.72-4.28,1.08-.31.08-.62.16-.93.23-4.12,1.02-8.29,2.01-12.52,2.97-.31.08-.62.15-.93.21-2.94.65-5.91,1.31-8.89,1.92-.9.2-1.79.38-2.69.57-.93.19-1.85.38-2.78.57-3.21.65-6.47,1.29-9.73,1.91-1.54.29-3.08.57-4.63.85-2.6.48-5.24.94-7.88,1.39-.57.1-1.15.19-1.73.29-1.58.26-3.16.52-4.75.78-2,.32-4.01.64-6.03.95-2.76.42-5.54.84-8.34,1.24-1.39.19-2.78.39-4.17.57h0c-3.38.48-6.78.92-10.2,1.34h0c-1.23.15-2.31-.81-2.3-2.04l.92-165.72h.09s.5-91.27.5-91.27c0-1.23,1.09-2.18,2.32-2.03,2.32.29,4.63.59,6.92.9,1.06.15,2.12.29,3.18.44.03,0,.06.01.09.01,2.4.33,4.79.67,7.15,1.03,1.43.21,2.86.43,4.28.64.32.04.65.09.97.15.03,0,.06.01.09.01,3.67.57,7.29,1.15,10.87,1.76.51.08,1.02.18,1.53.26.03.01.06.01.09.02.99.17,1.98.34,2.97.52.2.03.4.07.59.1.73.12,1.45.25,2.17.38.19.03.39.07.58.1.18.03.35.06.53.09.4.07.81.15,1.21.23.92.17,1.83.34,2.74.51.54.1,1.08.2,1.62.3h0s.06.02.09.03c.19.03.39.07.58.1,3.28.62,6.52,1.27,9.73,1.92.7.14,1.4.29,2.09.43.03.01.06.01.09.02,1.14.23,2.27.47,3.39.71,1.43.31,2.86.62,4.27.93,1.59.35,3.17.71,4.73,1.06.01,0,0,.01.02.01.02.01.05.01.07.02.76.17,1.52.35,2.28.52,1.58.37,3.14.74,4.67,1.11.65.16,1.29.32,1.94.47.65.16,1.3.32,1.94.48.92.23,1.56,1.06,1.56,2l-.26,47.35c0,1.33-1.25,2.3-2.54,1.98-.32-.08-.65-.16-.97-.24-.65-.15-1.29-.31-1.94-.47-1.54-.37-3.1-.74-4.67-1.11-.76-.17-1.52-.35-2.28-.52-.02-.01-.05-.01-.07-.02-.01,0,0-.01-.02-.01-1.57-.35-3.15-.71-4.73-1.06-1.42-.32-2.85-.63-4.27-.93-1.12-.24-2.25-.48-3.39-.71-.03-.01-.06-.01-.09-.02-.69-.14-1.39-.29-2.09-.43-3.21-.66-6.45-1.31-9.73-1.92-.19-.03-.39-.07-.58-.1-.03-.01-.06-.01-.09-.02l-.18,32.49c0,1.13.91,2.06,2.04,2.07l45.89.25c1.13,0,2.05.93,2.04,2.07l-.26,46.26c0,1.13-.93,2.05-2.07,2.04l-45.89-.25c-1.13,0-2.06.91-2.07,2.04l-.31,56.23c0,1.29,1.16,2.26,2.43,2.03,3.39-.62,6.75-1.25,10.07-1.91,4.23-.83,8.41-1.69,12.51-2.58,4.25-.93,8.41-1.87,12.52-2.87,3.42-.81,6.8-1.65,10.12-2.51.8-.21,1.6-.42,2.39-.63,4.26-1.13,8.43-2.29,12.52-3.48,4.28-1.26,8.45-2.54,12.52-3.86,4.3-1.39,8.47-2.82,12.52-4.29.19-.06.37-.13.55-.2,4.12-1.49,8.12-3.03,11.98-4.59,4.34-1.76,8.52-3.56,12.53-5.41,1.67-.77,3.32-1.55,4.93-2.33,1.56-.76,3.09-1.53,4.6-2.3Z" class="cls-1"/>
  <path d="M1371.59,537.7v42.45c0,1.81-1.36,3.33-3.15,3.53-3.1.34-6.21.66-9.35.95-.46.05-.93.1-1.39.14-3.68.36-7.38.68-11.11.97-1.08.1-2.16.19-3.24.27-3.07.25-6.16.47-9.26.68-1.69.12-3.39.23-5.09.33-2.46.16-4.93.31-7.41.44-2.3.13-4.62.24-6.94.34-1.85.09-3.71.17-5.56.24-2.93.12-5.86.22-8.8.31-1.23.04-2.46.08-3.7.11-3.54.1-7.09.17-10.65.24-.61.01-1.23.02-1.85.02-4.15.05-8.32.08-12.5.08s-8.35-.03-12.5-.08c-.62,0-1.24-.01-1.85-.02-3.56-.07-7.11-.14-10.65-.24-1.24-.03-2.47-.07-3.7-.11-2.94-.09-5.87-.19-8.8-.31-1.85-.07-3.71-.15-5.56-.24-2.32-.11-4.64-.22-6.94-.35-4.19-.22-8.36-.48-12.5-.76-3.09-.21-6.17-.43-9.23-.67-1.85-.14-3.27-1.69-3.27-3.54v-312.36c0-1.85,1.42-3.4,3.27-3.54,3.06-.24,6.14-.46,9.23-.67,4.14-.28,8.31-.54,12.5-.76,2.31-.13,4.62-.24,6.94-.35,1.85-.09,3.71-.17,5.56-.24,2.93-.12,5.86-.22,8.8-.31.01,0,.02,0,.04,0,2-.07,3.66,1.54,3.66,3.55v267.23c0,1.93,1.54,3.51,3.47,3.55,3,.07,6.02.11,9.03.16,4.15.04,8.32.07,12.5.07s8.35-.03,12.5-.07c4.18-.06,8.35-.13,12.5-.24,4.19-.1,8.35-.22,12.5-.38,4.19-.15,8.36-.33,12.5-.54,4.19-.2,8.36-.44,12.5-.7,4.2-.26,8.37-.54,12.5-.86,4.2-.31,8.37-.66,12.5-1.03,2.88-.25,5.75-.52,8.61-.8,2.09-.21,3.89,1.43,3.89,3.53Z" class="cls-1"/>
  <path d="M1171.59,269.26c-4.2.47-8.37.97-12.5,1.49-4.2.54-8.36,1.1-12.5,1.69-4.2.6-8.37,1.23-12.5,1.89-4.13.66-8.22,1.34-12.27,2.06-.08.01-.16.02-.23.04-.1.01-.2.03-.29.05-4.11.72-8.18,1.48-12.21,2.26-4.21.82-8.38,1.66-12.5,2.54-1.31.28-2.6.56-3.9.84-.43.08-.85.18-1.28.27-2.46.54-4.9,1.1-7.32,1.66-4.22.98-8.38,1.99-12.5,3.04-1.99.5-3.96,1.01-5.92,1.53-.23.06-.45.12-.68.18-.35.09-.71.19-1.06.28-1.62.43-3.24.87-4.84,1.31-4.23,1.16-8.39,2.36-12.5,3.59-4.23,1.27-8.4,2.57-12.5,3.91-2.05.66-4.08,1.34-6.09,2.02-1.35.46-2.7.92-4.04,1.39-.17.06-.34.12-.51.18-.62.22-1.24.43-1.86.66-4.24,1.5-8.41,3.04-12.5,4.62-4.26,1.65-8.43,3.33-12.5,5.05-1.55.66-3.09,1.32-4.61,1.99l-.42.18c-2.53,1.11-5.02,2.23-7.47,3.37-.63.29-1.26.59-1.88.88-3.62,1.7-7.17,3.44-10.62,5.22-1.96,1-3.88,2.01-5.78,3.03-.12.06-.24.12-.35.19-2.16,1.16-4.28,2.34-6.37,3.53-3.49,1.99-6.87,4.02-10.14,6.08-.79.5-1.58,1-2.36,1.5-.53.34-1.06.68-1.58,1.02-3.8,2.49-7.44,5.03-10.92,7.61-2.25,1.67-4.44,3.36-6.55,5.07-1.29,1.03-2.55,2.08-3.79,3.13-.73.62-1.45,1.24-2.16,1.87-2.81,2.46-5.47,4.97-7.97,7.5-1.58,1.58-3.08,3.17-4.53,4.78-.94,1.03-1.85,2.07-2.73,3.11-1.35,1.59-2.64,3.19-3.86,4.8-2.15,2.81-4.12,5.65-5.91,8.53-.7,1.14-1.38,2.27-2.02,3.42-.3.52-.59,1.04-.87,1.57-1.98,3.66-3.67,7.36-5.05,11.11-.85,2.3-1.58,4.61-2.19,6.94-.49,1.84-.9,3.7-1.23,5.56-.76,4.13-1.14,8.29-1.14,12.5s.39,8.5,1.17,12.68c.34,1.89.76,3.77,1.26,5.64.62,2.3,1.35,4.59,2.19,6.86,1.41,3.78,3.12,7.51,5.13,11.19.27.5.55,1,.85,1.5.6,1.08,1.24,2.15,1.9,3.22,1.91,3.07,4.02,6.1,6.34,9.09,1.18,1.52,2.4,3.02,3.68,4.52.8.95,1.63,1.89,2.48,2.82,1.62,1.8,3.31,3.58,5.09,5.35,2.34,2.34,4.81,4.66,7.41,6.94,1.01.9,2.04,1.79,3.09,2.67,1.15.97,2.33,1.93,3.53,2.89,1.9,1.52,3.86,3.03,5.88,4.52,3.52,2.62,7.22,5.19,11.07,7.71.45.29.98.45,1.52.45h112.41v-.64c-4.25-1.15-8.42-2.34-12.5-3.55-4.27-1.28-8.44-2.59-12.5-3.93-4.28-1.42-8.45-2.87-12.5-4.36-.18-.07-.37-.13-.55-.2-4.11-1.51-8.09-3.07-11.95-4.66-4.33-1.78-8.5-3.61-12.5-5.48-1.67-.78-3.31-1.57-4.92-2.36-2.6-1.29-5.13-2.59-7.58-3.92-4.43-2.39-8.61-4.85-12.5-7.37-.73-.46-1.44-.93-2.15-1.4-3.72-2.49-7.18-5.03-10.35-7.62-1.9-1.54-3.69-3.11-5.39-4.69-2.63-2.44-5-4.93-7.11-7.45-1.47-1.73-2.8-3.48-4.01-5.24-1.94-2.83-3.57-5.71-4.86-8.63-.81-1.82.53-3.87,2.52-3.87h191.09c1.52,0,2.75,1.23,2.75,2.75v44.68c0,1.52,1.23,2.75,2.75,2.75h44.49c1.52,0,2.75-1.23,2.75-2.75v-215.41c0-1.63-1.41-2.91-3.03-2.75-3.17.32-6.33.65-9.47,1ZM1131.34,388.62h-170.52c-2.59,0-3.74-3.25-1.73-4.88h0c2.94-2.41,6.12-4.76,9.54-7.07.97-.66,1.95-1.31,2.96-1.95,3.89-2.52,8.06-4.97,12.5-7.37,2.1-1.14,4.27-2.26,6.49-3.37,1.96-.98,3.96-1.95,6.01-2.91,4-1.87,8.17-3.7,12.5-5.49,3.39-1.39,6.88-2.76,10.46-4.1.68-.25,1.35-.5,2.04-.75,4.05-1.5,8.22-2.95,12.5-4.36,4.06-1.35,8.23-2.65,12.5-3.93,4.08-1.21,8.24-2.4,12.5-3.55v-.09h.34c3.98-1.07,8.03-2.11,12.16-3.13,4.1-1,8.26-1.98,12.5-2.93,4.1-.91,8.27-1.8,12.5-2.65,4.11-.83,8.28-1.64,12.5-2.41,1.85-.35,3.7-.68,5.57-1.01.18-.03.35-.06.53-.09.19-.03.39-.07.58-.1,1.93-.34,3.87-.66,5.82-.98,3.09-.52,6.19-1.02,9.33-1.5,1.67-.25,3.17,1.04,3.17,2.73v59.14c0,1.52-1.23,2.75-2.75,2.75Z" class="cls-1"/>
  <ellipse ry="174.67" rx="400" cy="426.31" cx="1271.59" class="cls-2"/>
  <ellipse ry="174.67" rx="400" cy="425.97" cx="1271.59" class="cls-3"/>
</svg>